# xmcd CD database file
#
# Track frame offsets:
#	150
#	19302
#	32919
#	50197
#	53600
#	77091
#	95450
#	119206
#	144629
#	163949
#	179490
#	194671
#	209950
#	227183
#	243364
#	258166
#	273511
#	282716
#	294009
#	311800
#
# Disc length: 4323 seconds
#
# Revision: 0
# Processed by: cddbd v1.5.2PL0 Copyright (c) Steve Scherf et al.
# Submitted via: CDex 1.70beta2
#
DISCID=4610e114
DTITLE=Dizzy Gillespie and Charlie Parker - Bebop Story Vol. 4 1947-50 CD 014
DYEAR=2008
DGENRE=Jazz
TTITLE0=Koko - On The Sunny Side Of The Street
TTITLE1=How Deep Is The Ocean
TTITLE2=Tiger Rag - Dizzy Atmosphere
TTITLE3=52nd Street
TTITLE4=A Night In Tunesia
TTITLE5=Dizzy Atmosphere
TTITLE6=Groovin' High
TTITLE7=Confirmation
TTITLE8=Koko
TTITLE9=Bloomdido
TTITLE10=An Oscar For Treadwell
TTITLE11=An Oscar For Treadwell
TTITLE12=Mohawk
TTITLE13=Mohawk
TTITLE14=My Melancholy Baby
TTITLE15=My Melancholy Baby
TTITLE16=Leap Frog
TTITLE17=Leap Frog
TTITLE18=Relaxin' With Lee
TTITLE19=Relaxin' With Lee
EXTD=YEAR: 2008
EXTT0=
EXTT1=
EXTT2=
EXTT3=
EXTT4=
EXTT5=
EXTT6=
EXTT7=
EXTT8=
EXTT9=
EXTT10=
EXTT11=
EXTT12=
EXTT13=
EXTT14=
EXTT15=
EXTT16=
EXTT17=
EXTT18=
EXTT19=
PLAYORDER=
